<svg xmlns="http://www.w3.org/2000/svg" xmlns:xlink="http://www.w3.org/1999/xlink" viewBox="0 0 135.57 135.56"><defs><style>.cls-1{mix-blend-mode:color-dodge;}.cls-2{fill:#fff;}.cls-3{fill:url(#Dégradé_sans_nom_183);}.cls-4{mask:url(#mask);}.cls-5{fill:url(#Nouvelle_nuance_de_dégradé_1);}.cls-6{fill:#1d1d1b;}</style><linearGradient id="Dégradé_sans_nom_183" x1="-0.71" y1="67.78" x2="140.29" y2="67.78" gradientUnits="userSpaceOnUse"><stop offset="0.2" stop-color="#087695"/><stop offset="0.22" stop-color="#111225"/></linearGradient><mask id="mask" x="4.41" y="0.67" width="130.5" height="130.5" maskUnits="userSpaceOnUse"><g class="cls-1"><path class="cls-2" d="M69.38,105.2H66.72a6,6,0,0,1-6-6V35.69a6,6,0,0,1,6-6h2.66a6.37,6.37,0,0,1,6,6V99.21A6,6,0,0,1,69.38,105.2Z"/><path class="cls-2" d="M82,115.82H39.47a.71.71,0,0,1-.72-.71v-1.59c0-5.15,9.48,3.18,9.47-8.81a.71.71,0,0,1,.71-.69H82a.71.71,0,0,1,.71.72v10.37A.71.71,0,0,1,82,115.82Z"/><path class="cls-2" d="M54.11,19.29H96.62a.71.71,0,0,1,.72.71v1.59c0,5.15-9.48-3.18-9.47,8.81a.71.71,0,0,1-.71.69h-33a.71.71,0,0,1-.71-.72V20A.71.71,0,0,1,54.11,19.29Z"/><path class="cls-2" d="M53.4,63.33a9.79,9.79,0,0,1-12.33,9.53,38.85,38.85,0,0,1-12.26-5.81c-7.18-5.19-11.3-12.53-11.3-20.14s4.12-15,11.3-20.14A42.21,42.21,0,0,1,53.4,19.29V31.17c-6.66,0-13.15,1.92-17.79,5.28-2.38,1.72-6.38,5.36-6.38,10.46s4,8.74,6.38,10.46c4.64,3.36,11.13,5.28,17.79,5.28Z"/><path class="cls-2" d="M42.41,42.66v30h0a10.92,10.92,0,0,0,11-10.89V42.66Zm6.94,20.22H46.42V44.76h2.93Z"/><path class="cls-2" d="M82.69,71.92A9.79,9.79,0,0,1,95,62.38a39.07,39.07,0,0,1,12.26,5.81c7.18,5.19,11.3,12.53,11.3,20.14s-4.12,15-11.3,20.14A42.14,42.14,0,0,1,82.69,116V104.07c6.66,0,13.15-1.92,17.79-5.28,2.38-1.71,6.38-5.36,6.38-10.46s-4-8.74-6.38-10.46a31,31,0,0,0-17.79-5.28Z"/><path class="cls-2" d="M93.68,92.58V62.63h0a10.93,10.93,0,0,0-11,10.89V92.58ZM86.74,72.36h2.93V90.48H86.74Z"/></g></mask><linearGradient id="Nouvelle_nuance_de_dégradé_1" x1="4.79" y1="65.8" x2="134.79" y2="65.8" gradientUnits="userSpaceOnUse"><stop offset="0.44" stop-color="#111225"/><stop offset="0.57" stop-color="#087695"/></linearGradient></defs><g id="Calque_2" data-name="Calque 2"><g id="Calque_4" data-name="Calque 4"><circle class="cls-2" cx="69.79" cy="65.8" r="65"/><path class="cls-3" d="M115.75,19.84A67.87,67.87,0,0,1,96.13,129.4a68.61,68.61,0,0,1-26.34,6.13,67.85,67.85,0,0,1-39.15-11.16,71.13,71.13,0,0,1-10.7-8.72A68.45,68.45,0,0,1,4.82,92.71,67.77,67.77,0,0,1,115.75,19.84Zm0,0a65.69,65.69,0,0,0-9.88-8A62.27,62.27,0,0,0,14.64,88.64a61.79,61.79,0,0,0,13.07,19.23,59.89,59.89,0,0,0,9,7.45A61,61,0,0,0,46.93,121a62.21,62.21,0,0,0,82.74-80,63,63,0,0,0-5.88-11.28A65.66,65.66,0,0,0,115.75,19.84Z"/><g class="cls-4"><circle class="cls-5" cx="69.79" cy="65.8" r="65"/><path class="cls-6" d="M115.75,19.84A65,65,0,1,1,94.69,5.68,65,65,0,0,1,115.75,19.84Zm0,0a64.78,64.78,0,1,0,14,21.1A65,65,0,0,0,115.75,19.84Z"/></g></g></g></svg>